<?xml version="1.0" standalone="no"?>
<!DOCTYPE svg PUBLIC "-//W3C//DTD SVG 20010904//EN"
 "http://www.w3.org/TR/2001/REC-SVG-20010904/DTD/svg10.dtd">
<svg version="1.0" xmlns="http://www.w3.org/2000/svg"
 width="839.000000pt" height="801.000000pt" viewBox="0 0 839.000000 801.000000"
 preserveAspectRatio="xMidYMid meet">
<metadata>
Created by potrace 1.16, written by Peter Selinger 2001-2019
</metadata>
<g transform="translate(0.000000,801.000000) scale(0.100000,-0.100000)"
fill="#000000" stroke="none">
<path d="M0 6415 c0 -1400 2 -1595 15 -1595 8 0 22 -11 31 -25 15 -24 15 -28
-6 -83 -13 -31 -27 -61 -32 -67 -4 -5 -8 -80 -8 -168 0 -126 3 -161 15 -173 8
-8 20 -23 27 -33 7 -9 31 -25 53 -33 22 -9 39 -21 38 -27 -2 -6 4 -11 12 -11
8 0 15 9 15 20 0 24 3 24 58 3 32 -12 48 -26 63 -55 11 -21 24 -38 30 -38 6 0
8 -16 5 -40 -3 -28 -1 -42 10 -48 13 -7 13 -13 -1 -46 -9 -21 -14 -40 -11 -43
7 -7 -19 -56 -38 -72 -20 -17 -21 -50 -1 -57 10 -4 31 10 58 37 23 24 52 50
64 58 29 19 47 64 40 100 -9 45 18 67 76 63 31 -3 47 -9 47 -17 0 -17 69 -8
88 12 8 7 27 20 43 28 16 9 29 20 29 25 0 13 47 43 73 46 12 1 25 3 30 3 4 1
7 7 7 14 0 7 9 23 19 34 11 12 17 24 14 27 -4 3 -1 6 5 6 7 0 12 15 12 34 0
26 5 36 20 41 11 4 18 10 15 15 -5 9 24 25 39 21 5 -1 4 5 -4 13 -8 11 -9 16
-1 16 18 0 14 87 -4 94 -21 8 -19 38 7 87 39 76 190 152 303 152 57 0 174 -27
185 -42 3 -4 22 -17 43 -30 25 -15 37 -30 37 -45 0 -26 -45 -93 -83 -123 -14
-11 -35 -37 -47 -57 l-21 -38 26 -79 c15 -43 31 -79 36 -79 5 0 9 -13 9 -28 0
-24 7 -32 40 -47 22 -10 40 -22 40 -27 0 -4 11 -8 24 -8 29 0 86 -66 86 -100
0 -12 16 -44 36 -71 41 -56 74 -135 74 -178 0 -64 -54 -116 -149 -141 -40 -10
-43 -14 -38 -38 9 -44 26 -82 37 -82 5 0 10 -13 10 -29 0 -23 5 -30 27 -36 15
-3 45 -20 67 -36 22 -16 47 -29 56 -29 25 0 140 71 140 86 0 7 9 15 19 19 13
4 17 12 14 25 -4 16 -2 19 11 14 9 -3 16 -2 16 4 0 6 -6 13 -12 15 -10 4 -10
6 0 6 7 1 12 15 12 36 0 19 5 35 10 35 6 0 10 -33 11 -77 2 -108 4 -148 13
-225 7 -52 6 -68 -4 -68 -6 0 -24 -13 -39 -29 -23 -24 -34 -29 -76 -28 -28 0
-61 -3 -73 -7 -32 -11 -55 -66 -42 -101 6 -15 10 -44 10 -66 0 -35 3 -39 24
-39 14 0 28 5 31 10 3 6 17 10 29 10 13 0 29 7 36 15 7 8 16 15 21 15 5 0 19
10 31 22 20 20 22 20 35 3 7 -11 13 -42 13 -71 0 -29 5 -56 10 -59 6 -3 10
-22 10 -41 0 -21 8 -42 21 -55 14 -14 19 -28 15 -45 -4 -15 -2 -24 6 -24 9 0
9 -3 0 -12 -15 -15 -16 -55 -1 -64 7 -4 9 -23 5 -54 -3 -25 -3 -50 1 -54 4 -4
9 -26 10 -48 2 -23 9 -51 16 -62 11 -16 13 -56 9 -178 -14 -448 156 -737 585
-996 260 -157 540 -261 813 -302 41 -6 95 -16 120 -22 25 -5 92 -11 149 -13
57 -2 108 -8 114 -14 21 -21 107 -9 107 15 0 8 5 14 10 14 6 0 10 -11 10 -24
0 -20 4 -23 23 -18 18 5 19 7 5 10 -29 6 -20 22 12 22 17 0 30 5 30 10 0 6 9
10 20 10 11 0 20 7 20 15 0 15 48 40 58 30 3 -3 11 4 19 15 8 11 21 20 29 20
8 0 14 3 14 8 0 4 14 15 30 24 18 10 28 22 24 31 -3 10 4 17 20 21 21 5 26 13
26 36 0 17 6 40 13 51 10 17 10 23 0 26 -26 9 -12 22 16 17 28 -6 30 -5 29 27
0 19 -5 39 -9 45 -6 7 -2 21 8 35 10 13 23 33 29 44 6 11 18 20 27 20 9 0 19
4 23 8 4 4 -2 7 -14 7 -26 0 -29 17 -5 22 10 2 18 10 19 18 1 8 2 25 2 38 2
15 8 22 22 22 11 0 20 5 20 10 0 6 -4 10 -10 10 -5 0 -10 3 -10 8 0 8 49 32
67 32 21 0 15 16 -12 28 -26 12 -32 27 -15 37 8 5 8 11 0 20 -6 8 -8 29 -4 54
5 34 4 41 -10 41 -9 0 -16 5 -16 11 0 5 8 9 18 8 44 -5 72 33 32 46 -16 5 -18
10 -10 26 8 14 21 19 50 19 30 0 40 4 40 16 0 10 6 14 14 11 14 -6 16 16 3 29
-17 17 -5 26 28 20 31 -6 35 -4 35 13 0 12 9 26 20 33 11 7 20 21 20 31 0 10
4 16 8 13 5 -3 8 7 7 22 -1 15 3 30 9 34 7 5 5 8 -4 8 -8 0 -20 12 -27 26 -10
22 -9 26 12 36 18 8 28 8 40 -2 8 -7 12 -16 9 -21 -3 -5 2 -6 11 -3 13 5 15
15 10 48 -4 22 -13 46 -21 52 -14 12 -19 36 -8 47 10 9 34 -4 34 -19 0 -8 4
-14 9 -14 11 0 24 47 16 59 -2 5 9 14 25 21 17 7 28 15 25 18 -9 9 16 31 30
26 19 -8 29 14 14 32 -13 16 -6 29 19 29 9 0 18 9 20 20 5 24 20 35 50 35 16
0 22 6 22 24 0 13 6 29 14 35 7 6 16 24 19 40 5 22 13 31 36 36 20 4 31 13 33
27 2 17 21 35 46 44 1 1 -4 14 -12 29 -19 37 -13 46 23 35 38 -10 44 -4 24 26
-14 22 -14 24 1 24 9 0 27 9 39 20 18 17 20 24 9 40 -7 11 -12 28 -11 37 0 11
3 13 6 6 7 -20 44 3 36 23 -3 9 0 20 8 24 7 5 13 27 14 52 0 37 3 43 23 46 22
3 30 26 12 37 -5 3 -10 14 -10 24 0 13 -7 18 -22 17 -13 -1 -22 -7 -20 -15 2
-10 -4 -12 -22 -7 -24 6 -25 5 -19 -31 4 -21 13 -44 20 -52 12 -11 12 -15 1
-22 -7 -5 -17 -4 -22 1 -17 17 -28 11 -21 -10 4 -11 2 -20 -4 -20 -6 0 -11 5
-11 11 0 7 -10 9 -25 5 -19 -5 -25 -2 -25 9 0 9 5 13 10 10 14 -9 12 8 -4 30
-12 16 -16 17 -30 6 -9 -7 -16 -22 -16 -32 0 -26 -35 -24 -54 3 -9 12 -13 31
-10 45 4 14 2 23 -5 23 -6 0 -11 7 -11 15 0 8 -8 15 -17 15 -15 0 -16 2 -3 10
11 7 9 11 -13 19 -37 14 -37 14 -37 -7 0 -23 19 -42 35 -36 9 4 13 -5 13 -30
0 -21 -5 -36 -12 -36 -13 0 -15 -104 -3 -116 8 -9 9 -54 1 -54 -12 0 -50 24
-61 39 -10 13 -12 13 -13 2 0 -12 -3 -12 -12 -3 -9 9 -9 15 0 24 13 13 16 38
5 38 -5 0 -13 -11 -19 -24 -13 -29 5 -71 36 -81 11 -3 20 -11 20 -16 0 -6 -6
-7 -12 -2 -7 4 -21 6 -31 5 -10 -2 -24 1 -30 6 -7 5 -31 13 -54 17 -35 5 -43
4 -43 -8 0 -9 6 -17 13 -20 6 -2 9 -7 6 -11 -9 -10 -39 4 -39 19 0 15 -46 29
-62 19 -7 -4 -8 -3 -4 4 5 8 0 12 -13 12 -16 0 -21 6 -21 26 0 39 -17 63 -40
57 -11 -3 -20 0 -20 6 0 5 -7 8 -15 5 -11 -5 -15 2 -15 26 0 30 1 31 32 25 30
-7 31 -6 15 9 -9 10 -17 22 -17 27 0 5 -15 9 -33 9 -36 0 -67 28 -67 61 0 11
-5 29 -10 40 -9 16 -7 19 10 19 16 0 20 -6 20 -31 0 -24 4 -30 18 -27 12 2 17
13 17 38 0 29 4 36 23 38 12 2 22 -1 22 -7 0 -6 -5 -11 -11 -11 -5 0 -7 -5 -3
-11 4 -7 9 -7 13 -2 3 5 15 13 25 17 19 7 19 8 -5 30 -14 13 -36 27 -50 31
-23 8 -23 8 -4 16 19 7 19 8 -1 8 -18 1 -21 7 -21 42 0 22 -5 45 -12 52 -8 8
-11 4 -11 -16 0 -15 -3 -27 -7 -27 -5 0 -8 25 -9 56 0 41 -5 60 -17 69 -10 7
-17 26 -17 44 0 36 -16 42 -23 9 -4 -21 -4 -21 -6 3 0 14 -10 34 -21 44 -11
10 -20 24 -20 32 0 7 -9 21 -19 30 -11 9 -18 20 -15 25 3 4 -2 11 -10 14 -9 3
-16 11 -16 18 -1 16 -32 51 -55 60 -16 6 -17 9 -5 16 12 8 12 12 0 36 -8 14
-24 30 -35 35 -11 4 -15 8 -8 8 28 2 15 91 -14 91 -11 0 -13 -5 -8 -17 15 -35
17 -63 6 -63 -6 0 -11 6 -11 13 0 8 -11 19 -25 25 -27 12 -35 56 -12 66 6 3 2
3 -10 0 -18 -4 -23 -1 -23 15 0 12 -7 21 -15 21 -8 0 -14 3 -14 8 1 4 1 20 0
35 -1 24 -4 27 -21 22 -17 -6 -20 -2 -20 30 0 22 -6 38 -15 41 -8 4 -15 12
-15 19 0 6 -9 20 -20 30 -11 10 -18 20 -15 23 3 3 -5 20 -16 39 -12 19 -19 36
-16 39 10 10 -24 75 -51 101 -17 15 -21 23 -10 19 12 -3 15 -1 11 10 -3 7 -11
14 -19 14 -8 0 -14 5 -14 10 0 6 -4 10 -9 10 -11 0 -20 -70 -9 -76 4 -3 7 -20
7 -37 -1 -18 -3 -24 -6 -14 -2 9 -9 17 -14 17 -12 0 -12 -27 1 -35 5 -3 10
-17 10 -30 0 -14 0 -36 0 -51 0 -14 4 -22 10 -19 6 3 10 1 10 -4 0 -6 -4 -11
-10 -11 -14 0 -38 -52 -32 -69 3 -8 0 -11 -7 -7 -6 4 -18 0 -27 -8 -23 -23
-69 -20 -98 8 -15 13 -26 28 -26 34 0 5 -7 13 -16 16 -9 4 -14 9 -11 13 3 3 0
18 -9 34 -16 32 -26 38 -18 12 4 -14 2 -14 -8 2 -23 35 -92 96 -130 116 -21
11 -38 17 -38 14 0 -3 -11 2 -25 11 -14 9 -25 22 -25 30 0 26 -19 23 -53 -10
-19 -18 -36 -38 -38 -43 -2 -6 -20 -14 -39 -18 -19 -4 -32 -4 -28 0 11 11 -42
36 -62 30 -18 -6 -63 30 -73 58 -4 9 -12 16 -18 15 -7 -2 -22 11 -33 28 -12
17 -28 28 -35 26 -10 -3 -12 1 -7 13 10 26 -4 85 -20 85 -8 0 -14 -6 -14 -12
0 -9 -3 -8 -10 2 -8 12 -11 12 -28 -3 -10 -9 -23 -17 -29 -17 -6 0 -13 -7 -17
-15 -5 -13 -11 -12 -44 5 -22 12 -48 30 -57 40 -10 11 -24 20 -32 20 -7 0 -13
7 -13 16 0 8 -4 12 -10 9 -14 -9 -50 13 -50 31 0 12 -8 15 -32 12 -18 -3 -41
-8 -51 -13 -10 -4 -17 -4 -16 1 3 20 -2 28 -10 15 -7 -11 -13 -12 -23 -4 -18
15 -68 4 -68 -14 0 -12 -9 -13 -42 -8 -24 4 -46 13 -50 19 -4 6 -8 7 -8 2 0
-5 -7 -3 -15 4 -16 14 -19 8 -17 -38 1 -14 -4 -22 -11 -19 -7 2 -11 11 -9 21
3 18 -9 21 -25 5 -19 -19 -33 0 -33 43 0 47 8 45 20 -4 8 -29 8 -27 7 17 -2
46 -4 50 -27 50 -14 0 -24 -5 -23 -12 2 -6 -7 -15 -20 -19 -12 -3 -30 -13 -39
-21 -10 -9 -24 -13 -32 -10 -20 8 -31 -10 -17 -26 7 -9 6 -21 -4 -40 -8 -15
-12 -34 -8 -42 3 -9 -1 -15 -9 -15 -8 0 -22 -15 -31 -32 l-16 -33 0 31 c-1 17
10 53 24 80 14 27 25 59 25 72 0 12 3 22 8 22 16 0 9 63 -9 81 -11 11 -19 15
-19 9 0 -14 -26 -13 -50 3 -15 8 -23 9 -28 1 -11 -16 -41 -25 -102 -31 -30 -2
-57 -8 -60 -13 -3 -5 -12 -5 -20 0 -8 6 -25 10 -37 10 -13 0 -23 4 -23 8 0 4
-18 19 -40 32 -22 14 -40 30 -40 36 0 5 -20 20 -44 32 -36 17 -51 19 -78 12
-46 -14 -107 -12 -123 2 -53 47 -76 54 -117 34 -36 -18 -58 -20 -58 -6 0 6
-11 10 -25 10 -14 0 -35 9 -47 20 -19 17 -20 25 -12 67 7 36 16 52 39 68 62
41 90 68 78 72 -7 3 -13 21 -13 42 0 22 -10 50 -25 74 -24 35 -34 41 -62 38
-6 -1 -14 3 -18 9 -3 5 -14 10 -23 10 -10 0 -25 9 -35 20 -24 28 -34 25 -48
-13 -8 -23 -26 -41 -58 -59 -43 -24 -49 -25 -88 -13 -23 7 -43 9 -45 4 -5 -14
-278 7 -326 25 -49 18 -122 12 -122 -10 0 -8 -7 -14 -15 -14 -18 0 -20 -27 -3
-32 7 -3 8 -9 2 -19 -5 -8 -9 -18 -9 -24 0 -12 -72 -7 -98 6 -12 7 -15 17 -11
32 3 13 6 31 8 40 1 9 9 23 17 29 20 17 69 102 69 121 0 8 20 42 44 75 40 54
56 66 154 116 69 34 129 58 161 62 36 5 57 13 69 29 58 74 216 134 353 135 99
0 238 -18 265 -35 33 -21 49 -69 35 -103 -23 -54 -115 -132 -156 -132 -7 0
-15 -7 -19 -15 -3 -8 -12 -15 -20 -15 -8 0 -19 -6 -23 -13 -4 -8 -16 -18 -27
-24 -16 -9 -12 -13 30 -28 27 -10 54 -24 59 -31 22 -25 38 -22 145 30 29 14
60 26 67 26 14 0 113 93 113 107 0 19 119 56 139 43 6 -3 13 -17 16 -29 6 -32
33 -71 48 -71 6 1 33 20 60 44 73 66 143 81 212 46 31 -16 50 -19 87 -15 72
10 197 -12 236 -42 30 -22 32 -28 26 -61 -4 -20 -10 -44 -15 -53 -8 -15 -14
-42 -25 -104 -3 -16 -10 -31 -15 -33 -5 -2 -9 -19 -9 -37 0 -19 -7 -40 -15
-49 -8 -8 -15 -26 -15 -39 0 -13 -9 -36 -20 -50 -24 -30 -25 -37 -4 -37 8 0
13 4 9 9 -3 5 8 16 25 25 24 12 35 12 53 3 13 -7 22 -17 20 -24 -2 -6 3 -18
12 -26 8 -9 15 -20 15 -26 0 -6 7 -11 16 -11 12 0 14 -3 6 -13 -19 -22 -3 -57
26 -57 13 0 30 -7 36 -15 6 -9 29 -18 51 -21 22 -3 55 -13 74 -21 27 -12 39
-13 53 -4 15 9 20 8 24 -4 4 -10 10 -12 18 -6 6 5 56 8 111 5 55 -2 110 -4
122 -4 36 0 16 -30 -21 -31 -30 -1 -30 -1 -6 -9 24 -7 24 -8 5 -15 -11 -5 -37
-19 -57 -32 -21 -13 -47 -23 -58 -23 -12 0 -31 -5 -43 -12 -12 -6 -43 -10 -69
-9 -27 1 -48 -3 -48 -9 0 -9 11 -12 65 -15 11 -1 26 -5 34 -9 7 -5 32 -10 55
-12 65 -6 94 -12 107 -20 9 -5 10 -2 6 9 -8 22 5 28 42 21 34 -7 41 -20 14
-27 -10 -2 7 -3 37 -1 39 2 56 7 58 17 4 19 53 37 103 37 30 0 37 3 33 15 -4
8 -1 15 6 15 6 0 8 5 5 10 -3 6 -2 10 4 10 5 0 13 9 16 20 8 25 22 26 28 3 3
-11 5 -7 6 10 1 24 4 27 21 22 15 -5 20 -2 20 12 0 19 39 60 53 55 4 -1 7 3 7
9 0 6 -9 13 -20 16 -11 3 -20 9 -20 13 0 5 9 6 20 3 15 -4 20 0 20 16 0 12 4
20 8 17 11 -7 64 29 55 37 -3 4 -1 7 5 7 6 0 13 -4 16 -9 3 -5 25 -6 49 -4 35
4 48 1 63 -14 10 -10 31 -24 47 -31 15 -6 27 -16 27 -22 0 -5 7 -10 15 -10 9
0 18 -6 21 -14 3 -8 12 -12 20 -9 9 3 14 -1 14 -11 0 -9 6 -19 13 -22 8 -3 14
-19 15 -37 0 -17 7 -36 14 -42 9 -6 12 -19 8 -35 -5 -17 0 -34 12 -52 13 -19
15 -29 7 -34 -8 -5 -4 -13 12 -25 13 -10 27 -19 31 -19 4 0 33 -25 63 -55 31
-30 59 -55 62 -55 3 0 20 -14 36 -32 19 -20 32 -27 35 -19 3 8 8 7 16 -5 7 -9
28 -17 47 -19 19 -2 40 -3 47 -4 6 -1 12 -6 12 -12 0 -6 -9 -8 -21 -4 -15 5
-19 4 -15 -4 4 -6 16 -11 28 -11 36 0 143 -31 160 -47 15 -14 20 -14 35 -2 9
8 14 9 10 2 -10 -16 5 -24 23 -13 9 5 19 5 27 -2 17 -14 110 -21 117 -9 4 6
13 8 21 4 8 -3 15 -1 15 5 0 6 -6 13 -12 15 -7 3 -3 6 9 6 12 1 25 -4 28 -9 5
-8 11 -7 21 1 7 6 11 15 8 21 -3 5 0 16 8 25 11 15 10 16 -10 11 -18 -5 -21
-4 -12 6 7 10 6 17 -5 26 -8 7 -15 9 -15 4 0 -5 -11 4 -25 19 -24 25 -37 31
-58 28 -4 -1 -18 4 -30 11 -12 7 -27 11 -34 10 -21 -5 -24 17 -3 30 11 7 20
19 20 27 0 11 4 10 14 -4 9 -13 20 -16 37 -12 14 4 48 -2 82 -15 44 -16 61
-28 72 -52 10 -20 29 -38 55 -49 45 -19 86 -24 60 -7 -12 8 -12 10 -1 10 8 0
11 7 8 20 -6 24 2 25 29 5 10 -8 37 -15 60 -15 22 0 49 -7 60 -15 10 -8 22
-15 27 -15 10 0 9 38 -2 44 -5 3 -7 15 -4 26 3 11 0 27 -7 35 -7 8 -11 15 -9
16 36 7 40 4 63 -44 33 -73 50 -92 71 -84 15 6 15 10 4 24 -12 14 -12 16 0 9
10 -7 12 -4 7 12 -5 14 -1 21 14 25 17 4 20 10 14 34 -4 15 -11 33 -15 39 -5
6 -6 14 -3 17 4 3 -4 26 -16 51 -12 25 -20 54 -18 63 2 11 -13 35 -39 61 -47
46 -63 52 -63 23 0 -30 -16 -33 -30 -6 -7 14 -17 25 -22 25 -4 0 -8 9 -8 20 0
11 -5 20 -12 20 -9 0 -9 3 -1 11 12 12 -7 58 -32 79 -8 7 -15 21 -15 31 0 16
5 18 28 13 15 -4 32 -11 39 -16 15 -12 53 7 53 27 0 7 -10 15 -22 17 -23 3
-38 28 -16 28 7 0 19 9 26 21 11 17 11 26 -2 52 -8 18 -24 39 -35 47 -12 8
-21 18 -21 23 0 5 7 4 15 -3 21 -17 30 -6 10 13 -8 9 -15 20 -15 26 0 6 -4 11
-8 11 -5 0 -14 11 -20 25 -6 14 -18 25 -27 25 -8 0 -15 7 -15 16 0 8 -5 12
-11 8 -7 -4 -10 3 -7 18 1 14 -4 34 -12 44 -14 17 -14 18 2 6 9 -7 19 -9 22
-4 6 10 -60 66 -78 67 -18 2 -50 17 -68 33 -11 9 -28 13 -48 9 -17 -4 -30 -2
-30 3 0 6 -11 10 -24 10 -13 0 -26 7 -30 15 -5 13 -9 13 -26 3 -18 -11 -23
-10 -38 9 -9 12 -28 23 -42 25 -15 2 -24 9 -22 17 2 9 -3 11 -14 7 -14 -5 -56
8 -106 35 -12 6 -18 5 -18 -2 0 -16 -89 -3 -109 15 -10 9 -27 12 -43 9 -17 -3
-33 1 -43 10 -9 9 -22 14 -29 11 -9 -3 -13 5 -14 27 0 17 -2 32 -4 34 -10 8
-78 12 -78 4 0 -5 12 -9 28 -9 23 -1 25 -2 9 -11 -9 -5 -22 -7 -27 -4 -14 8
-13 -8 1 -22 7 -7 9 -18 6 -27 -5 -11 -13 -13 -34 -7 -42 12 -123 13 -123 1 0
-5 13 -10 29 -10 24 0 31 -5 36 -30 8 -37 -1 -56 -20 -40 -10 8 -15 8 -20 0
-4 -7 2 -14 14 -17 16 -4 18 -9 11 -23 -7 -13 -22 -18 -56 -18 l-47 -1 6 39
c4 33 2 42 -15 51 -30 16 -18 40 31 59 31 12 39 19 28 23 -9 3 -19 2 -22 -3
-8 -14 -25 -12 -25 1 0 7 -7 17 -17 24 -16 12 -9 40 8 30 18 -12 8 18 -13 36
-17 16 -18 19 -5 19 10 0 17 4 17 9 0 5 9 11 20 14 11 3 20 1 20 -4 0 -6 8 -5
20 1 17 9 18 14 8 35 -7 15 -20 25 -32 25 -12 0 -38 9 -59 20 -20 11 -46 20
-58 20 -18 0 -21 -5 -17 -30 5 -34 -6 -38 -34 -13 -16 15 -21 15 -28 3 -5 -9
-5 -19 2 -27 6 -7 7 -13 3 -13 -4 0 -15 10 -26 23 -21 25 -25 73 -6 80 9 3 7
9 -5 24 -11 11 -18 34 -17 54 1 19 3 26 6 16 6 -22 27 -17 31 6 2 10 -3 17
-12 17 -9 0 -16 5 -16 10 0 6 6 10 13 10 8 0 7 4 -3 10 -13 9 -13 11 0 21 12
8 8 9 -17 5 -26 -4 -33 -1 -38 14 -4 11 -13 20 -21 20 -8 0 -14 5 -14 11 0 6
-7 8 -16 5 -25 -10 -64 23 -63 53 1 17 3 20 6 9 2 -10 9 -18 14 -18 6 0 7 5 4
10 -4 6 -1 18 7 27 11 14 11 16 -4 10 -9 -3 -19 -1 -22 6 -2 7 -8 2 -11 -10
-10 -30 -22 -29 -27 2 -5 26 9 45 21 29 3 -5 18 -10 33 -10 23 -1 26 1 18 17
-7 12 -7 20 0 24 15 9 12 25 -5 25 -9 0 -20 -10 -25 -22 -7 -19 -9 -15 -9 23
-1 25 -7 51 -13 57 -10 10 -10 15 -1 20 8 5 9 13 3 22 -7 11 -3 20 12 31 16
12 19 23 14 43 -3 14 -11 26 -17 26 -6 0 -7 -4 -4 -10 3 -5 2 -10 -3 -10 -8 0
-22 22 -22 35 0 2 12 5 28 7 22 2 28 8 30 36 3 29 1 32 -22 32 -14 0 -29 0
-33 0 -5 1 -9 -8 -11 -20 -2 -11 -8 -20 -13 -20 -5 0 -9 -7 -9 -15 0 -7 -23
-24 -50 -37 -28 -13 -50 -26 -50 -30 0 -5 -9 -8 -19 -8 -12 0 -23 -11 -30 -30
-7 -20 -17 -30 -30 -30 -12 0 -21 -7 -21 -15 0 -15 -10 -19 -42 -16 -21 3 -24
-15 -5 -22 6 -3 0 -6 -15 -6 -16 -1 -28 -5 -28 -11 0 -5 -11 -10 -25 -10 -17
0 -25 -6 -25 -17 0 -13 -3 -14 -11 -6 -14 14 10 43 34 43 7 0 16 3 19 6 8 7
-21 64 -33 64 -5 0 -9 7 -9 15 0 17 -26 21 -33 5 -3 -6 -4 -5 -3 2 2 8 23 14
59 16 31 2 57 7 57 11 0 14 -58 21 -85 11 -14 -5 -25 -7 -25 -3 0 4 -6 -2 -14
-13 -14 -18 -15 -18 -22 0 -5 12 -2 22 10 28 9 5 14 14 10 20 -9 15 18 60 33
54 12 -5 17 5 14 30 -1 7 5 14 14 18 8 3 15 15 15 26 0 12 11 32 25 46 14 14
25 22 25 17 0 -4 15 8 34 26 19 18 39 30 44 27 6 -4 17 2 24 11 17 24 124 103
138 103 21 0 90 40 90 53 0 8 3 7 9 -2 7 -12 15 -12 33 -4 26 12 140 5 132 -8
-3 -5 0 -9 5 -9 6 0 11 5 11 10 0 17 48 11 58 -7 9 -15 35 -21 100 -24 12 -1
22 -5 22 -9 0 -13 48 -18 59 -7 8 8 11 7 11 -1 0 -14 36 -16 44 -3 7 10 56 -9
56 -21 0 -5 15 -8 34 -8 19 0 38 -5 42 -11 3 -6 17 -8 31 -5 13 4 36 0 51 -7
45 -24 76 -35 100 -35 13 -1 29 -8 35 -16 7 -8 36 -17 67 -20 30 -2 56 -9 58
-15 2 -6 10 -11 17 -11 7 0 15 -5 17 -11 2 -7 24 -12 48 -11 25 0 52 -6 60
-14 8 -7 34 -17 56 -22 33 -7 43 -6 52 7 10 14 11 14 11 -1 1 -22 31 -24 31
-3 0 23 17 18 24 -8 3 -12 13 -24 23 -24 10 -1 50 -4 90 -7 78 -4 93 -10 93
-32 0 -8 5 -14 11 -14 6 0 9 7 5 15 -3 8 -1 15 4 15 6 0 10 -14 10 -32 0 -17
3 -29 6 -26 3 4 17 0 31 -7 15 -8 30 -12 35 -9 4 3 8 0 8 -6 0 -7 7 -5 16 4
14 14 18 13 40 -9 25 -25 34 -29 66 -26 17 2 42 -32 31 -43 -3 -3 7 -7 23 -8
16 -1 38 -3 49 -4 11 -1 26 -2 34 -3 10 -1 12 -10 8 -31 -7 -34 -8 -34 44 -19
32 10 40 9 54 -4 11 -11 25 -14 46 -10 24 5 28 3 23 -11 -4 -10 0 -18 10 -22
9 -3 16 -12 16 -20 0 -8 7 -14 15 -14 9 0 15 -9 15 -24 0 -14 5 -28 10 -31 6
-4 10 -16 8 -28 -2 -12 2 -21 7 -20 7 1 9 -13 7 -33 -3 -25 -8 -34 -18 -30
-25 10 -15 -19 15 -44 17 -13 28 -27 25 -31 -2 -4 4 -10 15 -14 20 -6 71 -73
71 -93 0 -7 5 -12 10 -12 6 0 10 -11 10 -25 0 -16 6 -25 15 -25 20 0 19 -14
-1 -31 -9 -7 -14 -22 -11 -35 3 -16 -3 -25 -22 -35 l-26 -12 25 -7 c14 -4 24
-12 23 -18 -2 -7 1 -12 7 -12 5 0 7 -7 3 -16 -3 -8 -15 -14 -27 -13 -11 2 -31
-3 -44 -10 -12 -6 -32 -9 -42 -6 -24 8 -44 -32 -28 -52 8 -9 4 -15 -13 -22
-13 -5 -28 -6 -32 -4 -5 3 -7 -5 -5 -18 2 -18 10 -25 31 -27 19 -2 27 1 27 12
0 9 4 16 9 16 13 0 32 -26 24 -33 -3 -4 2 -9 11 -13 9 -3 16 -12 16 -19 0 -16
-38 -50 -47 -42 -4 4 2 13 12 20 17 13 17 14 -1 22 -27 12 -84 12 -84 0 0 -6
9 -16 21 -23 15 -10 19 -20 15 -38 -5 -19 -1 -27 18 -36 17 -7 25 -18 23 -32
-1 -12 3 -20 9 -19 7 1 10 -6 7 -17 -4 -15 0 -20 13 -20 18 -1 18 -1 -1 -16
-19 -16 -19 -16 11 -12 28 4 31 1 40 -37 9 -40 9 -41 -15 -37 -18 4 -22 2 -16
-8 6 -10 4 -12 -9 -7 -10 4 -22 7 -27 7 -5 0 -8 5 -6 11 1 6 -4 14 -11 16 -19
7 -11 -28 8 -37 45 -21 55 -29 54 -48 0 -14 8 -22 25 -26 14 -3 37 -20 50 -37
l25 -32 -30 -24 c-18 -16 -24 -27 -17 -30 9 -3 8 -11 -3 -29 -11 -16 -12 -24
-5 -24 7 0 11 -10 9 -22 -2 -11 3 -23 10 -26 7 -2 12 0 11 5 -1 4 -1 15 0 23
1 13 3 13 10 0 6 -8 7 -18 4 -23 -3 -5 3 -7 13 -5 22 4 50 -40 35 -55 -5 -5
-7 -15 -4 -22 2 -8 -6 -19 -18 -26 -19 -10 -20 -13 -8 -23 8 -6 15 -18 15 -26
1 -8 5 -23 9 -32 6 -15 2 -18 -20 -18 -17 0 -25 -4 -22 -12 2 -7 10 -12 16
-10 8 1 11 -6 9 -20 -2 -16 -9 -22 -21 -20 -15 3 -17 -1 -12 -20 4 -13 12 -29
17 -35 7 -9 7 -13 -1 -13 -6 0 -11 -17 -11 -40 0 -22 5 -40 11 -40 5 0 7 -5 3
-11 -5 -8 -9 -7 -14 1 -5 8 -15 10 -26 6 -15 -6 -13 -11 18 -41 31 -28 34 -35
20 -40 -15 -6 -15 -8 2 -21 17 -12 18 -14 3 -14 -21 0 -23 -29 -2 -36 8 -4 15
-17 15 -30 0 -14 7 -27 16 -31 11 -4 14 -13 10 -29 -5 -20 -2 -24 15 -24 18 0
19 2 9 15 -10 12 -10 15 4 15 9 0 16 6 16 13 1 7 6 5 14 -5 11 -16 15 -13 35
28 13 25 20 52 17 60 -4 12 -2 12 14 4 11 -6 20 -8 20 -5 0 3 7 2 16 -3 11 -6
35 -5 68 4 28 8 66 14 84 14 19 0 62 8 97 17 73 19 85 16 155 -44 33 -29 39
-31 43 -16 3 13 5 11 7 -7 1 -14 2 -28 1 -32 -2 -13 17 -9 21 3 5 16 97 23
130 10 105 -40 77 -281 -32 -281 -35 0 -64 13 -97 43 -13 11 -25 18 -28 15 -3
-3 -17 -53 -30 -110 -26 -116 -81 -238 -148 -328 -23 -30 -46 -60 -53 -65 -7
-6 -19 -27 -27 -46 -8 -19 -25 -47 -38 -61 -13 -15 -31 -35 -39 -45 -9 -10
-39 -39 -67 -64 l-52 -46 15 -43 c19 -56 12 -92 -19 -88 -14 2 -23 11 -25 26
-5 30 -22 28 -22 -3 0 -20 -5 -25 -25 -25 -17 0 -25 6 -26 18 0 14 -3 13 -16
-6 -8 -12 -19 -22 -24 -22 -5 0 -23 -12 -39 -27 -32 -28 -80 -47 -143 -56 -27
-4 -37 -3 -34 6 2 7 9 12 15 12 7 0 11 5 11 10 -3 19 -24 45 -36 45 -16 0 -17
12 -1 28 9 9 10 15 2 20 -15 9 -44 67 -44 87 0 9 -3 14 -7 12 -5 -3 -8 17 -8
45 0 48 -16 80 -30 58 -3 -5 -4 -10 -1 -10 3 0 -6 -12 -21 -27 -14 -16 -29
-38 -34 -50 -5 -13 -13 -23 -19 -23 -6 0 -8 4 -5 10 3 6 -1 7 -9 4 -19 -7 -21
12 -3 23 6 4 13 24 14 43 2 19 4 50 5 68 1 18 7 32 15 32 25 0 14 37 -12 42
-29 6 -35 2 -35 -28 0 -17 -4 -21 -20 -17 -23 6 -27 -16 -8 -35 15 -15 -1 -29
-44 -39 -29 -6 -37 -18 -16 -25 6 -2 8 -10 4 -17 -6 -9 -11 -9 -22 0 -8 6 -17
9 -21 5 -12 -11 15 -29 46 -30 24 -1 31 -5 31 -22 0 -17 -5 -20 -25 -16 -18 3
-25 0 -25 -11 0 -8 -9 -17 -20 -20 -12 -3 -20 -14 -20 -26 0 -37 -35 -21 -45
22 -4 15 -14 27 -21 27 -10 0 -13 -7 -8 -24 9 -36 -4 -70 -21 -56 -10 8 -15 8
-20 0 -4 -7 -19 -9 -38 -4 l-32 6 19 -21 c11 -12 27 -20 35 -19 9 2 24 -5 34
-15 14 -14 22 -15 38 -7 18 10 19 9 13 -15 l-6 -26 38 16 c22 9 50 21 62 26
13 5 29 23 35 40 10 24 16 29 34 24 30 -7 29 3 -1 14 -32 13 -31 55 2 59 13 2
31 0 40 -4 9 -4 22 -6 29 -5 7 1 15 -15 18 -36 9 -60 37 -104 82 -133 30 -19
39 -30 31 -38 -40 -40 -242 -447 -274 -552 -15 -47 -39 -114 -54 -150 -54
-126 -161 -655 -159 -790 0 -80 26 -135 79 -170 24 -16 47 -27 51 -25 4 3 12
-2 19 -10 7 -8 18 -15 25 -15 7 0 16 -7 19 -16 3 -8 10 -13 15 -10 5 3 16 -5
25 -19 9 -13 37 -36 63 -51 27 -16 64 -40 83 -56 19 -15 43 -28 52 -28 10 0
18 -4 18 -10 0 -19 90 -11 117 10 14 11 32 20 39 20 21 0 83 -34 84 -46 0 -6
11 -20 25 -32 23 -20 24 -26 18 -83 l-6 -61 42 -38 c65 -58 120 -61 172 -9 10
10 30 21 44 25 18 4 25 13 25 30 0 21 4 24 40 24 24 0 40 5 40 12 0 9 3 8 13
-1 10 -11 10 -14 -1 -18 -6 -3 -12 -12 -12 -22 0 -22 23 -71 33 -71 4 0 7 -7
7 -15 0 -24 34 -36 69 -24 17 6 28 16 24 21 -4 7 3 9 22 4 16 -4 40 -2 57 5
29 12 30 16 31 109 0 19 5 38 11 42 21 14 0 17 -42 6 -49 -12 -62 -6 -38 18
10 10 14 23 10 33 -3 9 -7 23 -8 31 -1 19 -33 50 -50 50 -31 0 -46 13 -46 40
0 27 -1 28 -77 35 -78 7 -174 36 -203 60 -53 45 -152 80 -162 57 -5 -12 -77
-52 -94 -52 -49 0 -74 114 -34 160 16 19 26 22 57 17 40 -7 98 8 122 31 42 40
196 92 272 92 51 0 179 -34 231 -62 10 -4 94 -10 188 -13 152 -3 173 -6 199
-24 16 -12 36 -21 43 -21 8 0 21 -11 28 -25 16 -29 37 -31 99 -9 33 11 46 12
51 3 5 -7 21 -10 41 -7 20 3 38 0 46 -8 17 -16 17 -34 1 -34 -10 0 -9 -3 1 -9
22 -14 -14 -59 -55 -67 -19 -3 -34 -9 -34 -13 0 -4 -17 -16 -38 -26 l-37 -20
38 -3 c28 -2 37 -8 37 -22 0 -11 10 -20 25 -24 14 -4 25 -11 25 -17 0 -5 10
-13 23 -18 25 -10 47 3 47 28 0 9 11 29 24 44 15 18 27 47 31 79 6 43 14 58
49 90 22 22 62 49 88 61 48 22 61 37 33 37 -8 0 -24 9 -35 20 -12 12 -34 20
-52 20 -35 1 -68 19 -68 39 0 11 -13 15 -40 11 -8 -1 -12 2 -7 6 4 4 1 14 -7
23 -26 30 -56 92 -56 117 0 48 96 149 161 169 54 17 76 42 81 94 4 38 12 55
38 81 32 32 39 33 118 21 2 -1 22 -20 44 -42 39 -39 43 -41 85 -35 58 8 61 10
85 65 22 47 24 54 26 83 1 9 35 50 76 91 58 60 78 75 95 70 17 -4 21 -1 21 20
0 14 -6 32 -13 39 -43 44 -55 74 -53 133 2 62 -4 75 -41 75 -14 0 -25 9 -32
28 -13 35 -30 56 -59 71 -22 12 -22 14 -8 30 18 20 23 131 6 131 -5 0 -10 14
-10 30 0 17 -2 30 -5 30 -3 0 -36 -31 -73 -68 -62 -63 -72 -70 -128 -81 -34
-6 -68 -9 -77 -6 -15 6 -49 76 -61 127 -3 15 -7 67 -7 115 -1 70 -4 93 -19
111 -10 12 -25 22 -33 22 -17 0 -57 33 -57 48 0 11 -52 32 -80 32 -10 0 -23
-7 -30 -15 -20 -24 -43 -18 -74 19 -16 19 -42 38 -57 41 -35 8 -38 22 -6 27
12 2 26 13 32 26 5 12 14 22 20 22 6 0 16 9 23 20 7 11 17 20 23 20 6 0 24 10
41 21 25 18 29 27 27 60 -3 31 2 44 24 67 15 15 27 36 27 45 0 10 7 20 15 23
8 4 15 12 15 18 0 21 48 42 62 28 16 -16 45 -15 51 2 6 16 45 22 171 31 47 3
83 10 88 17 5 7 6 36 3 63 -15 126 -12 140 40 188 61 57 67 62 88 70 22 8 19
43 -8 83 -27 40 -34 166 -11 189 9 9 16 22 16 30 0 12 26 26 77 40 31 9 85
-19 106 -54 26 -44 100 -111 122 -111 32 0 59 -24 52 -45 -5 -13 -3 -16 8 -11
9 3 15 0 15 -9 0 -8 -6 -15 -12 -15 -7 0 -24 -9 -37 -19 -13 -10 -32 -16 -41
-14 -10 3 -43 -8 -73 -24 l-56 -28 44 -64 c24 -35 52 -84 60 -110 34 -96 74
-178 108 -221 15 -19 27 -41 27 -48 0 -26 51 -80 94 -101 24 -11 57 -34 74
-50 17 -17 33 -31 36 -31 3 0 6 189 6 420 l0 419 -32 17 c-18 9 -38 22 -45 29
-7 7 -16 15 -20 17 -5 1 -15 19 -25 39 -13 29 -14 43 -5 77 6 23 15 42 19 42
4 0 8 9 8 20 0 10 6 23 13 27 15 10 37 71 37 102 0 40 -64 131 -92 131 -5 0
-8 9 -8 20 0 11 -4 20 -8 20 -5 0 -14 11 -21 24 -15 27 -6 66 15 66 8 0 14 6
14 13 0 7 18 20 40 30 22 9 40 19 40 23 0 3 -4 2 -10 -1 -11 -7 -11 -8 -15 58
-1 26 2 50 7 53 4 3 6 10 3 15 -4 5 8 9 24 9 21 0 31 5 31 15 0 8 7 15 15 15
13 0 15 57 15 450 0 453 -6 542 -37 565 -21 16 -26 101 -8 138 8 16 15 36 15
42 0 7 7 18 15 25 13 11 15 58 15 316 0 277 -4 328 -24 295 -3 -4 -29 -9 -57
-10 -29 0 -60 -3 -70 -6 -13 -5 -19 4 -29 45 -7 30 -20 54 -31 61 -10 5 -19
16 -19 24 0 20 -35 28 -59 14 -13 -9 -19 -23 -18 -46 1 -18 5 -33 8 -33 3 0
15 -9 27 -20 28 -26 29 -73 2 -110 -18 -25 -23 -27 -72 -23 -57 5 -128 31
-128 46 0 6 -23 7 -57 2 -32 -4 -69 -7 -82 -7 -15 0 -20 -3 -12 -8 9 -5 8 -9
-6 -15 -69 -28 -105 -32 -288 -37 -130 -3 -172 9 -172 49 0 14 -4 28 -9 32
-10 7 -12 15 -16 64 -1 20 -4 35 -7 35 -17 -1 -19 5 -10 36 6 22 6 43 -1 62
-8 21 -8 29 2 35 8 5 14 3 16 -6 4 -19 22 -20 22 -1 0 8 17 16 46 20 78 10
110 7 137 -14 14 -11 29 -20 35 -20 5 0 17 -9 26 -19 57 -63 212 -4 229 87 6
29 3 34 -34 58 -24 15 -48 23 -59 19 -25 -8 -84 21 -159 79 -60 47 -61 47 -58
94 4 55 14 82 31 82 7 0 28 21 46 47 52 72 129 141 174 156 29 10 42 20 44 35
2 14 13 24 28 28 21 5 24 11 20 30 -3 12 -1 26 4 29 8 5 7 11 -1 21 -9 11 -39
14 -124 14 l-113 0 0 -45 c0 -122 -28 -179 -92 -190 -23 -4 -40 -12 -40 -20 0
-16 -41 -32 -103 -39 -49 -6 -85 5 -100 30 -4 8 -15 14 -22 14 -8 0 -15 3 -15
8 0 4 -17 12 -37 19 -33 10 -38 9 -54 -10 -10 -12 -18 -26 -19 -31 0 -4 -12
-34 -26 -66 -29 -61 -55 -83 -116 -94 -74 -13 -150 57 -151 143 -2 55 44 125
99 150 24 12 63 30 87 41 28 13 64 20 103 20 41 0 69 6 91 20 43 26 78 31 127
19 34 -8 50 -6 91 10 l50 20 -456 1 c-383 0 -458 -2 -462 -14 -8 -19 19 -130
32 -134 6 -2 11 -14 11 -27 0 -28 18 -47 59 -65 24 -9 34 -22 42 -54 15 -53
16 -181 1 -199 -6 -7 -14 -32 -18 -55 -5 -35 -4 -43 12 -48 95 -31 134 -76
134 -152 0 -48 -3 -55 -41 -92 -34 -33 -48 -40 -80 -40 -22 0 -39 -4 -39 -10
0 -5 -7 -10 -15 -10 -8 0 -15 -6 -15 -14 0 -25 -14 -26 -79 -3 -43 15 -77 35
-106 63 -23 23 -51 46 -62 53 -14 7 -24 25 -28 50 -5 33 -1 52 29 114 36 74
45 120 26 132 -21 13 -10 70 21 108 17 20 28 41 25 46 -3 5 -24 5 -48 0 -75
-14 -98 -11 -128 19 -22 22 -30 42 -36 88 -14 110 -7 121 100 174 36 18 51 31
51 45 0 18 -8 20 -97 23 l-98 3 0 -52 c0 -80 -18 -126 -64 -164 -23 -18 -48
-34 -56 -36 -23 -4 -60 11 -60 25 0 18 -50 61 -88 76 -36 14 -94 8 -117 -12
-41 -37 -48 -40 -76 -34 -17 3 -37 13 -45 21 -9 8 -21 15 -29 15 -23 0 -75
-53 -75 -77 0 -12 -4 -25 -10 -28 -5 -3 -10 0 -10 8 0 7 -11 20 -25 27 -17 9
-25 22 -25 39 0 14 -11 36 -25 51 -22 23 -23 28 -12 60 7 19 18 45 25 58 l13
22 -453 0 c-351 0 -449 -3 -440 -12 27 -27 7 -78 -30 -78 -10 0 -18 -6 -18
-14 0 -8 -21 -24 -46 -36 -25 -13 -53 -30 -62 -39 -25 -25 -109 -54 -140 -48
-56 11 -158 55 -184 81 -15 14 -31 26 -36 26 -6 0 -12 6 -15 14 -12 32 -98 -4
-121 -50 -8 -18 -18 -58 -21 -91 -9 -72 -39 -115 -92 -131 -22 -6 -54 -27 -71
-47 -38 -42 -73 -60 -129 -70 -23 -3 -61 -20 -83 -36 -23 -17 -51 -34 -63 -38
-36 -13 -76 7 -98 50 -10 21 -23 39 -27 39 -5 0 -18 20 -30 44 -41 85 -9 139
91 152 36 5 50 2 73 -14 16 -12 36 -22 44 -23 28 -3 41 1 35 11 -3 6 2 10 12
11 14 0 15 2 3 6 -43 16 -111 105 -131 172 -10 32 -21 47 -45 58 -36 18 -94
11 -118 -12 -43 -43 -123 -24 -182 43 -42 47 -64 39 -64 -23 0 -55 -10 -67
-87 -101 -31 -14 -62 -33 -69 -42 -10 -13 -16 -14 -37 -5 -22 10 -26 9 -31
-10 -3 -12 -6 -34 -6 -49 0 -15 -6 -31 -12 -35 -16 -10 -38 -49 -38 -67 0 -19
-26 -40 -35 -26 -4 6 -27 8 -61 4 -47 -6 -57 -4 -74 14 -17 18 -19 33 -17 109
4 103 24 151 75 179 33 18 95 21 117 6 5 -4 22 -9 37 -11 22 -2 29 3 34 23 3
14 10 26 15 26 5 0 9 9 9 20 0 20 -7 20 -376 20 l-376 0 7 -27 c4 -16 15 -36
25 -46 20 -18 50 -105 50 -141 0 -12 -11 -50 -23 -86 -14 -39 -24 -95 -26
-140 -3 -91 -31 -158 -77 -189 -47 -32 -75 -100 -82 -195 -4 -62 -11 -91 -32
-126 -28 -48 -93 -98 -138 -106 -15 -3 -31 -9 -36 -15 -18 -16 -65 -10 -86 13
-28 31 -60 95 -60 122 0 22 -27 56 -45 56 -17 0 -85 53 -85 66 0 9 -11 14 -28
14 -42 0 -82 38 -82 78 0 35 25 82 44 82 6 0 17 9 23 19 10 17 20 19 65 14
l53 -5 19 43 c19 43 19 53 14 262 -1 16 -6 27 -14 27 -8 0 -14 7 -14 15 0 12
-10 15 -47 12 -61 -5 -83 6 -83 41 0 15 -7 38 -16 51 -15 21 -15 27 2 79 10
31 19 63 20 70 2 9 -71 12 -337 12 l-339 0 0 -26 c0 -15 -5 -44 -11 -64 -9
-29 -9 -46 0 -71 6 -18 7 -35 3 -38 -5 -3 -14 -16 -20 -27 -25 -47 -92 -28
-92 26 0 12 -5 63 -12 111 l-12 89 -328 0 -328 0 0 -1595z m3098 1168 c28 -8
52 -20 52 -27 0 -7 9 -21 19 -30 11 -10 31 -42 45 -71 17 -36 36 -60 56 -70
16 -8 30 -19 30 -23 0 -4 14 -13 30 -20 21 -10 30 -21 30 -37 0 -22 -11 -35
-116 -132 -46 -43 -116 -83 -145 -83 -10 0 -39 -13 -64 -29 -41 -26 -44 -31
-31 -44 9 -8 21 -17 27 -19 8 -3 13 -30 13 -74 1 -63 -1 -69 -20 -72 -27 -4
-47 44 -53 124 -1 7 -10 14 -22 17 -15 4 -19 11 -15 25 5 14 -2 27 -24 46 -30
24 -31 27 -20 63 7 21 14 64 16 95 4 53 2 61 -31 106 -32 45 -35 56 -36 121
-1 81 7 96 61 112 23 7 40 19 43 30 4 16 12 18 54 13 26 -3 72 -12 101 -21z
m-1955 -355 c36 -33 45 -99 19 -158 -10 -25 -25 -70 -32 -100 -12 -50 -60
-120 -82 -120 -4 0 -21 13 -38 30 -36 35 -38 64 -10 139 10 29 22 68 24 87 8
50 11 59 16 64 3 3 13 22 22 43 21 43 43 47 81 15z m315 -171 c16 -13 16 -62
-1 -76 -8 -6 -31 -14 -53 -19 -36 -8 -41 -6 -61 22 -28 37 -29 70 -3 96 19 19
22 19 62 3 24 -9 49 -21 56 -26z m5514 -202 c29 -37 48 -73 48 -91 0 -8 4 -14
8 -14 15 0 42 -70 42 -108 0 -40 -37 -82 -72 -82 -10 0 -27 -5 -37 -11 -31
-20 -65 -3 -102 52 -44 65 -78 130 -78 150 -1 8 -9 24 -19 35 -24 26 -24 50 2
77 18 19 31 22 103 22 78 0 82 -1 105 -30z m911 -232 c18 -10 36 -23 42 -30 5
-7 31 -21 58 -32 26 -11 47 -25 47 -30 0 -15 -34 -85 -42 -89 -13 -6 -68 -92
-68 -106 0 -15 -47 -26 -115 -29 -22 -1 -43 -6 -46 -11 -4 -5 -15 -6 -24 -2
-12 4 -16 14 -13 31 3 14 1 25 -6 25 -6 0 1 10 17 21 15 11 27 29 27 38 0 10
3 21 6 24 4 3 8 22 9 42 2 38 43 135 57 135 4 0 8 7 8 15 0 19 5 19 43 -2z
m-4909 -227 c-8 -20 12 -29 35 -14 11 7 24 9 28 5 4 -5 2 -11 -4 -15 -8 -5 -4
-15 13 -31 20 -19 24 -20 24 -6 0 33 25 7 37 -38 6 -25 15 -52 19 -59 5 -7 9
-20 9 -28 0 -8 6 -14 14 -12 7 1 19 -2 25 -8 7 -5 16 -7 19 -3 4 3 7 -1 7 -9
0 -23 -32 -32 -46 -14 -14 20 -28 20 -48 0 -20 -20 -76 -36 -76 -23 0 6 -10
10 -22 9 -43 -4 -59 0 -52 11 5 8 -2 10 -21 6 -38 -7 -55 1 -48 21 4 13 1 12
-10 -3 l-16 -20 -15 20 c-14 19 -13 20 17 23 39 4 57 25 57 69 0 25 4 31 15
27 11 -4 15 1 15 17 0 19 2 21 10 9 15 -24 18 -7 3 20 -7 14 -13 20 -13 14 0
-5 -7 -19 -15 -30 -14 -18 -15 -17 -9 11 7 31 31 65 45 65 5 0 6 -6 3 -14z
m298 -286 c22 0 77 -45 83 -67 3 -13 12 -23 20 -23 26 0 26 -20 1 -31 -29 -13
-25 -33 5 -24 13 4 19 2 19 -9 0 -8 7 -19 16 -24 14 -8 13 -10 -5 -15 -14 -3
-24 0 -28 9 -3 8 -11 14 -19 14 -7 0 -21 15 -30 33 -22 42 -18 40 -67 47 -25
3 -41 11 -39 18 1 7 -5 12 -13 12 -8 0 -15 5 -15 11 0 6 -9 8 -20 4 -11 -4
-20 -2 -20 4 0 6 6 11 13 11 7 0 5 5 -5 11 -19 11 -13 39 8 39 8 0 14 5 14 11
0 6 16 2 36 -10 19 -12 40 -21 46 -21z m-2872 -304 c0 -8 7 -16 15 -20 27 -10
16 -43 -30 -87 -25 -24 -45 -47 -45 -51 0 -4 -18 -25 -40 -48 -59 -60 -111
-56 -153 13 -10 15 -13 27 -8 27 27 0 120 66 134 95 9 19 34 44 59 58 50 29
68 33 68 13z m6590 -391 c17 -9 30 -20 30 -25 0 -5 9 -12 20 -15 11 -3 20 -12
20 -19 0 -16 52 -66 69 -66 16 0 62 -36 55 -43 -3 -3 -1 -8 5 -12 6 -3 11 -1
11 4 0 20 35 11 54 -14 10 -13 22 -22 27 -20 4 3 11 0 15 -6 4 -8 3 -9 -4 -5
-7 4 -12 1 -12 -9 0 -8 9 -19 21 -23 19 -7 19 -9 5 -21 -23 -19 -146 -8 -158
14 -5 8 -19 15 -32 15 -15 0 -26 7 -28 18 -3 10 -23 28 -44 39 -21 11 -67 35
-102 52 -72 37 -84 63 -59 117 14 28 22 34 47 34 17 0 44 -7 60 -15z m-2459
-396 c69 -23 120 -52 169 -97 27 -25 50 -50 50 -55 0 -4 12 -24 26 -43 18 -23
22 -34 13 -34 -12 0 -12 -2 0 -9 8 -5 11 -16 8 -25 -3 -8 0 -19 7 -23 12 -7
29 -53 20 -53 -2 0 -25 20 -51 45 -25 25 -49 45 -54 45 -4 0 -14 9 -21 19 -17
24 -96 80 -164 117 l-52 27 14 33 c8 19 15 37 17 41 1 4 -11 11 -28 14 -21 5
-23 7 -9 8 12 0 36 -4 55 -10z m-1577 -1101 c-4 -6 -3 -8 3 -5 16 10 83 -12
78 -26 -3 -7 -1 -17 3 -23 9 -15 91 -23 95 -9 2 5 17 10 34 10 17 0 29 -3 27
-6 -2 -4 6 -9 17 -12 11 -3 23 -15 26 -26 3 -11 25 -30 49 -42 24 -11 47 -26
52 -33 4 -7 31 -30 60 -51 28 -22 52 -44 52 -50 0 -6 29 -38 65 -72 36 -34 65
-68 65 -77 0 -9 5 -16 10 -16 6 0 10 -7 10 -15 0 -8 5 -15 10 -15 15 0 12 -19
-5 -36 -14 -14 -19 -11 -16 8 0 4 -13 15 -29 25 -17 9 -33 25 -36 35 -3 10
-11 18 -18 18 -7 0 -18 12 -25 26 -6 14 -30 42 -53 62 -23 21 -53 47 -65 60
-13 12 -30 22 -37 22 -8 0 -17 7 -20 16 -4 9 -9 14 -12 11 -4 -3 -19 7 -35 23
-16 16 -39 32 -50 35 -11 4 -18 9 -15 12 3 3 -5 14 -19 25 -18 14 -39 18 -93
17 -68 -1 -71 0 -101 32 -18 19 -41 44 -52 55 -16 17 -18 23 -8 27 25 10 40 7
33 -5z m869 -56 c-2 -12 2 -22 7 -22 6 0 10 7 10 16 0 11 6 14 23 9 44 -14 69
-38 92 -88 22 -51 22 -52 3 -59 -17 -7 -18 -10 -4 -23 22 -22 29 -54 16 -70
-10 -12 -9 -15 3 -15 8 0 18 6 21 13 3 6 3 -8 0 -33 -3 -25 -6 -47 -6 -50 -1
-22 4 -30 12 -25 6 3 10 1 10 -5 0 -6 -10 -8 -27 -4 -37 9 -40 13 -23 25 13 8
12 12 -6 27 -23 18 -40 57 -35 81 2 10 -2 10 -14 -3 -24 -23 -45 -20 -45 7 0
16 -9 28 -27 37 -26 12 -27 13 -8 21 16 7 14 8 -8 4 -34 -7 -97 4 -97 16 0 5
8 9 18 9 12 0 18 8 18 23 0 26 -15 39 -38 31 -13 -4 -18 0 -18 15 0 12 -4 21
-10 21 -23 0 -8 33 20 43 17 6 30 14 30 18 0 4 19 6 43 5 37 -2 42 -6 40 -24z
m3152 -145 c1 -1 9 -13 18 -27 13 -18 17 -47 17 -111 0 -61 4 -89 13 -92 19
-6 -11 -37 -38 -37 -12 0 -39 -13 -60 -30 -21 -16 -44 -30 -51 -30 -25 0 -104
-93 -104 -122 0 -44 -34 -71 -82 -65 -22 3 -42 8 -46 11 -3 4 -6 38 -5 77 0
56 5 75 21 92 11 12 26 42 32 67 14 50 31 92 42 100 4 3 23 37 42 75 57 114
81 130 155 108 24 -7 45 -14 46 -16z m-4143 -122 c13 -11 31 -27 40 -35 9 -8
24 -21 32 -28 9 -7 55 -21 103 -31 117 -25 121 -27 133 -69 15 -54 13 -61 -16
-68 -41 -10 -147 -10 -169 0 -18 9 -19 8 -6 -7 18 -23 18 -22 -100 19 -106 38
-157 77 -151 115 2 9 -2 20 -8 24 -16 10 -12 62 5 69 8 3 15 11 15 18 0 22 94
16 122 -7z m-331 -5 c15 -12 26 -26 23 -33 -2 -7 25 -43 61 -81 36 -37 65 -74
65 -82 0 -8 7 -14 15 -14 8 0 21 -13 29 -28 13 -25 12 -30 -4 -52 -17 -22 -21
-23 -43 -11 -14 7 -40 14 -58 16 -33 3 -34 3 -31 44 3 34 1 41 -15 41 -15 0
-16 2 -3 11 12 9 11 10 -8 6 -13 -3 -20 -1 -16 4 9 15 -18 98 -33 103 -7 3
-13 -1 -13 -9 0 -8 -9 -15 -20 -15 -22 0 -27 15 -7 24 8 3 5 11 -12 25 -20 18
-22 23 -10 39 30 38 41 39 80 12z m792 -247 c17 -10 40 -26 51 -35 11 -10 28
-20 38 -24 10 -3 18 -12 18 -19 0 -22 22 -29 35 -12 16 22 27 22 24 0 -4 -41
0 -43 54 -39 28 2 60 7 70 11 13 5 17 2 17 -13 0 -11 4 -22 9 -24 5 -1 7 -16
4 -31 -4 -21 -10 -26 -24 -22 -11 4 -19 2 -19 -4 0 -11 18 -15 58 -11 12 1 22
-3 22 -9 0 -6 -7 -8 -15 -5 -12 5 -14 -1 -10 -34 4 -31 1 -44 -12 -54 -11 -8
-18 -27 -19 -49 0 -30 3 -35 18 -31 10 2 18 0 18 -6 0 -13 -41 -23 -54 -13
-18 14 -56 20 -56 9 0 -6 -12 -8 -27 -5 -15 3 -37 -2 -50 -10 -22 -14 -23 -14
-23 6 0 16 -6 21 -26 21 -18 0 -25 5 -23 18 3 30 -1 35 -16 22 -13 -10 -19 -9
-36 6 l-20 18 22 8 c17 7 19 11 9 22 -9 12 -6 15 21 18 30 3 35 8 47 48 16 54
8 130 -14 130 -8 0 -14 -7 -14 -15 0 -8 -4 -15 -10 -15 -15 0 -12 -27 6 -44
14 -15 14 -17 -2 -15 -4 0 -10 -5 -14 -11 -4 -6 -23 -12 -41 -13 -32 -2 -34 1
-40 33 -12 74 -45 121 -64 90 -9 -15 -46 -12 -59 5 -10 14 -16 14 -54 1 -28
-10 -50 -12 -65 -6 -19 8 -20 9 -3 9 39 2 5 13 -49 17 -36 3 -54 1 -50 -6 9
-15 -21 -12 -34 4 -13 15 -74 7 -94 -13 -6 -6 -20 -11 -30 -11 -10 0 -21 -9
-24 -20 -3 -11 -9 -17 -14 -15 -4 3 -6 12 -3 19 3 8 -5 23 -17 35 -19 18 -20
21 -6 27 9 3 15 10 12 14 -3 5 10 6 28 3 19 -3 44 0 55 6 18 10 23 8 33 -11
11 -21 13 -21 19 -4 3 11 13 20 21 21 82 12 263 26 275 21 9 -4 22 -2 28 3 10
8 40 16 74 20 8 0 28 -7 45 -16z m3877 -478 c7 -8 19 -15 27 -15 7 0 27 -10
43 -22 27 -20 34 -21 81 -10 28 7 65 12 83 12 32 0 34 -2 39 -47 6 -59 4 -65
-36 -83 -38 -17 -149 -15 -178 3 -14 9 -22 9 -27 1 -4 -6 -20 -14 -37 -18 -26
-5 -36 0 -77 40 -40 38 -48 51 -48 82 0 30 6 40 28 54 35 21 86 22 102 3z
m-462 -106 c2 -5 10 -16 18 -23 16 -17 19 -30 4 -21 -5 3 -10 2 -10 -3 0 -6 7
-12 15 -16 22 -8 18 -43 -5 -56 -21 -11 -55 -110 -47 -139 3 -11 -2 -17 -16
-18 -10 -1 -27 -9 -36 -17 -9 -9 -47 -25 -85 -36 -37 -12 -75 -29 -85 -38 -56
-53 -69 -62 -84 -56 -23 9 -21 21 4 29 19 6 16 10 -22 27 -29 13 -39 22 -29
26 22 8 30 25 18 39 -8 10 -3 21 21 43 17 17 39 30 48 30 19 1 63 33 63 46 0
4 8 17 18 28 10 12 26 47 36 78 9 32 20 57 24 57 21 -3 31 3 37 22 6 19 12 21
59 15 28 -4 53 -12 54 -17z m230 -395 c11 -27 25 -35 97 -58 40 -13 45 -19 45
-62 0 -33 -5 -46 -20 -54 -16 -9 -20 -8 -20 5 0 11 -11 15 -40 15 -26 0 -40 5
-40 13 0 15 -65 52 -78 43 -5 -3 -18 1 -28 9 -10 8 -27 15 -36 15 -11 0 -18 8
-18 20 0 11 -4 20 -9 20 -5 0 -13 10 -17 22 -4 13 -14 28 -23 35 -14 10 -13
12 11 18 15 4 31 4 36 1 5 -3 27 3 48 13 39 19 39 19 59 -4 12 -12 27 -35 33
-51z m-1408 -16 c16 -17 19 -30 14 -57 -4 -20 -10 -40 -15 -45 -5 -6 -9 -18
-9 -27 0 -19 -41 -31 -108 -31 -33 0 -48 5 -68 27 -30 32 -31 82 -1 77 12 -2
17 4 17 20 1 51 131 78 170 36z"/>
<path d="M8341 7907 c-59 -30 -112 -81 -105 -101 3 -9 1 -16 -5 -16 -14 0 -10
-41 7 -59 17 -18 80 -2 121 30 28 23 30 28 30 97 1 39 0 72 -1 72 -2 0 -23
-10 -47 -23z"/>
<path d="M4090 6103 c0 -12 7 -28 15 -37 13 -13 13 -15 -3 -20 -10 -3 -43 -7
-74 -7 l-57 -2 6 -31 c6 -35 23 -59 23 -34 0 14 6 13 41 -5 78 -41 89 -48 89
-58 0 -11 -1 -11 -65 -14 -27 -2 -53 -3 -57 -4 -13 -2 -9 -39 5 -38 45 1 67
-5 67 -18 0 -11 12 -15 48 -15 27 0 57 -7 70 -16 12 -8 22 -10 22 -5 0 6 -4
11 -9 11 -4 0 -8 12 -7 28 1 32 -2 31 56 8 43 -17 44 -18 25 -33 -20 -15 -20
-15 2 -8 13 3 37 0 55 -8 36 -16 88 -21 88 -9 0 10 121 14 134 3 17 -13 95
-20 102 -9 8 13 1 18 -32 24 -39 7 -49 15 -30 26 9 5 21 6 26 3 6 -3 10 1 10
9 0 8 -4 18 -10 21 -22 14 -10 35 20 35 17 0 30 5 30 10 0 6 -9 10 -20 10 -11
0 -20 4 -20 10 0 5 -17 12 -37 16 -49 9 -103 32 -103 43 0 5 -7 12 -16 15 -13
5 -15 2 -11 -14 3 -11 2 -20 -3 -20 -4 0 -11 15 -15 33 -7 28 -8 29 -12 9 -3
-16 -9 -22 -20 -18 -8 3 -17 6 -19 6 -2 0 -4 5 -4 11 0 5 4 8 9 4 5 -3 13 -1
16 5 12 19 -65 41 -166 47 -54 3 -99 10 -99 16 0 5 -8 6 -17 3 -11 -5 -23 1
-35 16 l-18 23 0 -22z"/>
<path d="M6157 4348 c2 -5 -2 -8 -10 -8 -7 0 -25 -13 -40 -29 -19 -22 -23 -32
-14 -39 22 -18 66 -11 82 14 9 14 25 24 40 24 20 0 25 -6 30 -37 3 -21 11 -57
17 -80 20 -78 -20 -346 -63 -425 -8 -14 -25 -45 -38 -69 -36 -67 -80 -118
-107 -125 -24 -6 -34 -24 -14 -24 19 0 75 32 88 51 7 10 19 24 26 32 38 37
115 137 131 168 10 18 21 36 24 39 14 12 50 88 44 93 -3 4 1 15 9 24 14 16 26
63 32 119 1 11 5 25 9 30 11 18 20 141 13 178 -5 25 -11 34 -21 29 -11 -3 -13
-1 -9 10 3 10 -2 18 -18 23 -30 10 -217 11 -211 2z"/>
<path d="M5968 4239 c-10 -5 -18 -14 -18 -20 0 -5 -26 -35 -58 -67 -57 -56
-92 -126 -73 -145 5 -5 25 -4 45 1 41 12 45 8 52 -50 3 -24 10 -60 15 -82 6
-21 7 -62 4 -90 -6 -48 -6 -50 9 -31 8 11 16 26 16 33 0 6 4 12 10 12 8 0 5
-42 -6 -78 -2 -7 4 -23 13 -36 l17 -22 37 20 c32 18 40 29 53 77 9 30 16 71
16 90 0 20 3 39 7 43 4 4 8 32 8 61 0 40 -4 55 -13 55 -9 0 -12 6 -8 15 3 9
-1 18 -8 21 -8 3 -17 17 -21 31 -3 14 -12 31 -19 39 -8 7 -22 40 -32 73 -19
65 -20 66 -46 50z"/>
<path d="M85 3749 c-87 -64 -85 -59 -85 -181 0 -84 3 -113 15 -124 8 -9 15
-29 15 -45 0 -19 5 -29 15 -29 8 0 15 -9 15 -20 0 -11 6 -20 14 -20 8 0 23 -3
33 -7 17 -7 17 -6 -1 21 -19 30 -11 46 25 46 17 0 49 30 49 47 0 5 12 47 26
92 l26 83 -22 61 c-27 73 -49 107 -70 106 -8 0 -33 -14 -55 -30z"/>
<path d="M8244 1943 c4 -19 4 -23 -3 -14 -7 11 -15 11 -41 2 -18 -6 -35 -9
-39 -6 -4 2 -20 -5 -37 -16 -35 -23 -84 -26 -84 -4 0 10 -10 15 -29 15 -16 0
-31 5 -33 11 -9 27 -129 -69 -134 -107 -9 -57 -89 -144 -134 -144 -10 0 -37
-7 -60 -15 -24 -8 -73 -16 -109 -18 -53 -2 -66 -5 -69 -19 -2 -12 12 -25 45
-42 26 -14 61 -35 76 -48 80 -65 94 -75 120 -88 16 -8 26 -19 23 -27 -6 -14
-5 -14 34 -17 14 -1 34 -7 46 -13 19 -11 21 -8 32 34 10 34 10 49 1 59 -6 8
-9 25 -7 39 3 14 2 25 -2 25 -4 0 -5 10 -3 23 8 39 57 55 143 45 49 -5 96 -4
136 3 56 10 64 15 100 60 38 48 63 116 64 172 0 16 4 36 9 45 5 10 7 30 4 45
-4 21 -11 27 -30 27 -22 0 -24 -3 -19 -27z"/>
<path d="M8125 1340 c-59 -40 -130 -60 -169 -49 -20 5 -36 14 -36 19 0 4 -14
12 -32 15 -18 4 -40 12 -49 18 -13 8 -23 5 -44 -11 -28 -22 -61 -30 -50 -12 9
14 -39 12 -53 -2 -7 -7 -12 -8 -12 -4 0 4 -14 -4 -31 -18 -17 -14 -34 -26 -39
-26 -15 0 -53 -44 -102 -118 -27 -39 -48 -74 -48 -77 0 -3 -11 -22 -23 -43
-13 -20 -54 -95 -92 -167 -37 -71 -71 -135 -76 -141 -15 -19 -21 -98 -10 -127
6 -16 18 -27 29 -27 10 0 26 -8 36 -19 14 -15 16 -35 12 -122 -5 -125 3 -158
67 -274 24 -42 39 -60 53 -59 62 3 63 3 61 31 -1 20 4 31 19 37 18 8 23 22 28
75 9 88 25 111 76 111 25 0 40 5 40 13 0 7 7 4 15 -7 21 -28 21 -159 0 -180
-8 -8 -15 -22 -15 -30 0 -12 -11 -16 -50 -16 -27 0 -50 5 -50 10 0 6 -12 9
-27 9 -17 -1 -21 -3 -10 -6 23 -6 22 -20 -3 -33 -11 -6 -20 -21 -20 -35 0 -13
-5 -27 -10 -30 -6 -4 -4 -12 6 -22 11 -12 27 -14 64 -10 27 3 52 2 55 -4 8
-11 115 -12 133 0 20 12 42 60 42 91 0 22 6 29 26 34 16 4 30 19 40 41 10 24
19 33 29 29 12 -5 15 -24 15 -86 0 -44 -5 -88 -10 -99 -10 -19 -5 -19 235 -19
l245 0 0 566 c0 512 -2 566 -16 560 -9 -3 -24 -6 -35 -6 -12 0 -19 -7 -19 -20
0 -21 -16 -25 -57 -14 -14 4 -24 17 -29 42 -11 49 -11 92 -2 98 11 7 10 52 -2
59 -5 3 -17 21 -26 40 -19 40 -36 43 -79 15z m70 -300 c3 -5 1 -10 -4 -10 -6
0 -11 -4 -11 -10 0 -5 7 -10 16 -10 12 0 15 -9 13 -37 -1 -21 -1 -75 0 -120 1
-76 3 -83 21 -83 17 0 19 -5 13 -32 -3 -18 -9 -35 -13 -38 -3 -3 -16 -12 -28
-21 -13 -9 -23 -29 -26 -50 -2 -24 -9 -35 -22 -37 -15 -3 -17 -1 -6 9 17 18
17 169 -1 169 -12 0 -44 80 -49 125 -2 11 12 42 30 68 17 26 32 57 32 68 0 20
24 26 35 9z"/>
<path d="M6877 1311 c-3 -12 -17 -21 -41 -25 -20 -4 -36 -11 -36 -16 0 -5 -9
-11 -19 -15 -33 -10 -61 -69 -54 -112 3 -21 6 -54 5 -73 0 -19 -1 -46 -1 -59
-1 -14 6 -35 14 -48 14 -21 20 -22 91 -17 42 3 89 11 105 18 35 15 98 95 104
133 2 15 9 48 15 73 21 85 21 84 -40 90 -55 6 -55 6 -15 11 l40 6 -38 1 c-36
2 -87 32 -55 32 10 0 9 3 -2 10 -26 17 -67 12 -73 -9z"/>
</g>
</svg>
